# xmcd
#
# Track frame offsets:
#  150
#  12982
#  27390
#  37581
#  53423
#  69079
#  84713
#  100556
#  112193
#  126536
#  139117
#  153930
#  165871
#  178395
#  193711
#  208920
#  221082
#  234176
#
# Disc length: 4014 seconds
#
# Revision: 0
# Processed by: cddbd v1.5.1PL0 Copyright (c) Steve Scherf et al.
# Submitted via: AltoMP3_Maker 3.0
#
DISCID=ef0fac12
DTITLE=Howie and the Hillcats - Lowtek Man
DYEAR=1900
DGENRE=
TTITLE0=Givin' my rhythm blues
TTITLE1=Lowtek Man
TTITLE2=Take me drunk I'm home
TTITLE3=Willie went to Amsterdam
TTITLE4=Lord od the Shuffleboard
TTITLE5=Outside lookin' in
TTITLE6=Hats and boots
TTITLE7=Ballon Race
TTITLE8=All I need is you
TTITLE9=Backroads
TTITLE10=Free world woman
TTITLE11=Beehive
TTITLE12=Long lonesome day
TTITLE13=Swamper
TTITLE14=Rocky Mountain Hula Girl
TTITLE15=Vu-Ja-De
TTITLE16=none
TTITLE17=none
EXTD=
EXTT0=
EXTT1=
EXTT2=
EXTT3=
EXTT4=
EXTT5=
EXTT6=
EXTT7=
EXTT8=
EXTT9=
EXTT10=
EXTT11=
EXTT12=
EXTT13=
EXTT14=
EXTT15=
EXTT16=
EXTT17=
PLAYORDER=
